<svg xmlns="http://www.w3.org/2000/svg" width="640" height="160" viewBox="0 0 640 160" fill="none">
  <defs>
    <linearGradient id="wave" x1="0" y1="0" x2="1" y2="1">
      <stop offset="0" stop-color="#38bdf8"/>
      <stop offset="1" stop-color="#1e3aaa"/>
    </linearGradient>
  </defs>
  <!-- Wave mark -->
  <g transform="translate(16,28)">
    <circle cx="52" cy="52" r="52" fill="#0d1550"/>
    <circle cx="52" cy="52" r="50" fill="none" stroke="#f0b429" stroke-width="2"/>
    <path d="M14 64 C28 50 38 50 52 64 C66 78 76 78 90 64" stroke="url(#wave)" stroke-width="7" stroke-linecap="round" fill="none"/>
    <path d="M14 46 C28 32 38 32 52 46 C66 60 76 60 90 46" stroke="#38bdf8" stroke-width="5" stroke-linecap="round" fill="none" opacity="0.8"/>
    <path d="M14 82 C28 68 38 68 52 82 C66 96 76 96 90 82" stroke="#f0b429" stroke-width="5" stroke-linecap="round" fill="none" opacity="0.9"/>
  </g>
  <!-- Wordmark -->
  <text x="148" y="74" font-family="Georgia, 'Times New Roman', serif" font-size="46" font-weight="700" letter-spacing="1" fill="#ffffff">HIGH TIDE</text>
  <text x="150" y="116" font-family="Helvetica, Arial, sans-serif" font-size="26" font-weight="500" letter-spacing="8" fill="#38bdf8">T R A V E L</text>
</svg>
